<svg height="349.253521" viewBox="0 0 90.974901 111.02667" width="286.324959" xmlns="http://www.w3.org/2000/svg" xmlns:xlink="http://www.w3.org/1999/xlink"><clipPath id="a"><path d="m0 0h158.37v51.104h-158.37z"/></clipPath><clipPath><path clip-rule="evenodd" d="m0 51.104v-51.00069h159v51.00069"/></clipPath><clipPath><path clip-rule="evenodd" d="m0 51.104v-51.00069h159v51.00069"/></clipPath><clipPath><path clip-rule="evenodd" d="m0 51.104v-51.00069h159v51.00069"/></clipPath><clipPath><path clip-rule="evenodd" d="m0 51.104v-51.00069h159v51.00069"/></clipPath><clipPath><path clip-rule="evenodd" d="m0 51.104v-51.00069h159v51.00069"/></clipPath><clipPath><path clip-rule="evenodd" d="m0 51.104v-51.00069h159v51.00069"/></clipPath><clipPath><path clip-rule="evenodd" d="m0 51.104v-51.00069h159v51.00069"/></clipPath><clipPath><path clip-rule="evenodd" d="m0 51.104v-51.00069h159v51.00069"/></clipPath><clipPath><path clip-rule="evenodd" d="m0 51.104v-51.00069h159v51.00069"/></clipPath><clipPath><path clip-rule="evenodd" d="m0 51.104v-51.00069h159v51.00069"/></clipPath><clipPath><path clip-rule="evenodd" d="m0 51.104v-51.00069h159v51.00069"/></clipPath><clipPath><path clip-rule="evenodd" d="m0 51.104v-51.00069h159v51.00069"/></clipPath><clipPath><path clip-rule="evenodd" d="m0 51.104v-51.00069h159v51.00069"/></clipPath><clipPath><path clip-rule="evenodd" d="m0 51.104v-51.00069h159v51.00069"/></clipPath><clipPath><path clip-rule="evenodd" d="m0 51.104v-51.00069h159v51.00069"/></clipPath><clipPath><path clip-rule="evenodd" d="m0 51.104v-51.00069h159v51.00069"/></clipPath><clipPath><path clip-rule="evenodd" d="m0 51.104v-51.00069h159v51.00069"/></clipPath><clipPath><path clip-rule="evenodd" d="m0 51.104v-51.00069h159v51.00069"/></clipPath><clipPath><path clip-rule="evenodd" d="m0 51.104v-51.00069h159v51.00069"/></clipPath><clipPath><path clip-rule="evenodd" d="m0 51.104v-51.00069h159v51.00069"/></clipPath><clipPath><path clip-rule="evenodd" d="m0 51.104v-51.00069h159v51.00069"/></clipPath><clipPath><path clip-rule="evenodd" d="m0 51.104v-51.00069h159v51.00069"/></clipPath><clipPath><path clip-rule="evenodd" d="m0 51.104v-51.00069h159v51.00069"/></clipPath><clipPath><path clip-rule="evenodd" d="m0 51.104v-51.00069h159v51.00069"/></clipPath><clipPath><path clip-rule="evenodd" d="m0 51.104v-51.00069h159v51.00069"/></clipPath><clipPath id="b"><path clip-rule="evenodd" d="m0 51.104v-51.00069h159v51.00069"/></clipPath><clipPath id="c"><path clip-rule="evenodd" d="m0 51.104v-51.00069h159v51.00069"/></clipPath><clipPath id="d"><path clip-rule="evenodd" d="m0 51.104v-51.00069h159v51.00069"/></clipPath><clipPath id="e"><path clip-rule="evenodd" d="m0 51.104v-51.00069h159v51.00069"/></clipPath><clipPath id="f"><path clip-rule="evenodd" d="m0 51.104v-51.00069h159v51.00069"/></clipPath><clipPath id="g"><path clip-rule="evenodd" d="m0 51.104v-51.00069h159v51.00069"/></clipPath><clipPath id="h"><path clip-rule="evenodd" d="m0 51.104v-51.00069h159v51.00069"/></clipPath><clipPath id="i"><path clip-rule="evenodd" d="m0 51.104v-51.00069h159v51.00069"/></clipPath><clipPath id="j"><path clip-rule="evenodd" d="m0 51.104v-51.00069h159v51.00069"/></clipPath><clipPath id="k"><path clip-rule="evenodd" d="m0 51.104v-51.00069h159v51.00069"/></clipPath><clipPath id="l"><path clip-rule="evenodd" d="m0 51.104v-51.00069h159v51.00069"/></clipPath><clipPath id="m"><path clip-rule="evenodd" d="m0 51.104v-51.00069h159v51.00069"/></clipPath><g transform="matrix(2.757875 0 0 -.8904125 13.15942 63.262)"><g clip-path="url(#a)" transform="scale(.45463 1.4089)"><g clip-path="url(#b)"><path d="m50.049 26.092c0 13.445-10.88 24.336-24.312 24.336-13.431 0-24.2363-10.891-24.2363-24.336 0-13.37 10.8053-24.2611 24.2363-24.2611 13.432 0 24.312 10.8911 24.312 24.2611z" fill="#fff"/></g><g clip-path="url(#c)"><path d="m23.336 29.998v-1.427c0-.226.15-.451.375-.451h2.026 2.026c.225 0 .375.225.375.451v1.427c0 .225-.15.375-.375.375-.675 0-1.35.075-2.026.075-.675 0-1.35-.075-2.026-.075-.225 0-.375-.15-.375-.375z" fill="#007549"/></g><g clip-path="url(#d)"><path d="m26.938 14.299c0-.676-.525-1.201-1.201-1.201-.675 0-1.2.525-1.2 1.201s.525 1.277 1.2 1.277c.676 0 1.201-.601 1.201-1.277z" fill="#007549"/></g><g clip-path="url(#e)"><path d="m32.64 11.821c0 .225-.225.375-.45.375-2.026-.676-4.202-.976-6.453-.976s-4.427.3-6.453.976c-.225 0-.45-.15-.45-.375 0-.15.075-.301.225-.376 2.101-.601 4.352-.976 6.678-.976s4.577.375 6.678.976c.15.075.225.226.225.376z" fill="#007549"/></g><g clip-path="url(#f)"><path d="m21.085 40.889c-.6-.075-1.126-.15-1.726-.3-.3 0-.525-.301-.525-.601v-4.732c0-.376.3-.676.75-.601.526 0 1.126.075 1.651.15.375 0 .6.3.6.676v4.807c0 .376-.3.676-.75.601z" fill="#007549"/></g><g clip-path="url(#g)"><path d="m28.664 40.513c0 .301-.226.601-.601.601-.75.075-1.5.151-2.326.151-.75 0-1.576-.076-2.326-.151-.375 0-.6-.3-.6-.601v-4.957c0-.376.3-.676.675-.601h2.251 2.251c.375-.075.676.225.676.601z" fill="#007549"/></g><g clip-path="url(#h)"><path d="m29.639 40.288v-4.807c0-.376.225-.676.6-.676.601-.075 1.126-.15 1.726-.15.375-.075.675.225.675.601v4.732c0 .3-.15.601-.525.601-.525.15-1.125.225-1.726.3-.45.075-.75-.225-.75-.601z" fill="#007549"/></g><g clip-path="url(#i)"><path d="m22.135 25.867h-2.626c-.375 0-.675-.301-.675-.676v-4.808c0-.375.225-.6.6-.676.826-.075 1.801-.15 2.701-.15.376 0 .676.301.676.676v4.958c0 .375-.3.676-.676.676z" fill="#007549"/></g><g clip-path="url(#j)"><path d="m28.664 25.191v-4.958c0-.375.3-.676.675-.676.975.075 1.876.075 2.701.15.375.076.6.301.6.676v4.808c0 .375-.225.676-.6.676h-2.701c-.375 0-.675-.301-.675-.676z" fill="#007549"/></g><g clip-path="url(#k)"><path d="m27.088 25.867h-2.701c-.376 0-.676-.301-.676-.676v-5.033c0-.375.3-.676.676-.676h1.35 1.351c.375 0 .675.301.675.676v5.033c0 .375-.3.676-.675.676z" fill="#007549"/></g><g clip-path="url(#l)"><path d="m23.711 49.827c-.075.301-.45.451-.75.451-4.427-.526-8.479-2.178-11.856-4.732-5.8525-4.432-9.6043-11.492-9.6043-19.454 0-9.84 5.8528-18.4024 14.3313-22.158 1.051-.4507 2.327-.1502 3.002.7511l2.401 3.3049c-1.125.1503-2.176.3756-3.226.676-.451.1503-.676.5258-.676.9014v32.5986c0 .375.225.751.676.826 1.275.376 2.551.676 3.901.826l.15 1.352c0 .226.226.376.451.376h2.626z" fill="#007549"/></g><g clip-path="url(#m)"><path d="m40.369 45.546c-4.052 3.08-9.154 4.882-14.632 4.882-.3 0-.525 0-.825 0s-.45-.3-.375-.601l1.425-4.281h3.002c.225 0 .45-.15.45-.376l.15-1.352c1.351-.15 2.701-.45 3.977-.826.375-.075.6-.451.6-.826v-32.5986c0-.4507-.225-.7511-.6-.9014-1.051-.3004-2.176-.5257-3.302-.676l2.401-3.3049c.676-.9013 1.951-1.2018 3.002-.7511 8.479 3.7556 14.407 12.318 14.407 22.158 0 7.962-3.827 15.022-9.68 19.454z" fill="#007549"/></g></g><path d="m24.571793-7.378902c-.05059 0-.07779-.1567963-.07779-.3147352v-1.503184h-2.631647c-.02363 0-.07411-.07839-.07411-.1573683v-1.3458245c0-.158954.0503-.237689.100914-.237689h2.604843v-1.66056h-1.973603c-.151837 0-.303673-.235498-.377903-.552423-.101221-.315869-.151896-.713292-.151896-1.108129v-5.614417c0-.395895.05086-.789859.12509-1.027808.101221-.394837.252872-.554068.404709-.554068h1.973603v-1.66056h-2.733087c-.05061 0-.100915-.07973-.100915-.237688v-1.265497c0-.157904.0503-.236052.100915-.236052h2.733087v-2.21462c0-.158987.02718-.396701.07779-.396701h.78629c.02363 0 .07411.237714.07411.396701v2.21462h2.682106c.05061 0 .101439.0778.101439.314736v1.186813c0 .157904-.05083.237688-.101439.237688h-2.682106v1.66056h1.949952c.17545 0 .304009.157871.405233.47374.07423.236907.124566.554303.124566 1.108136v5.852105c0 .395887-.07432.790909-.175548 1.027809-.10122.237964-.229408.395055-.354251.395055h-1.949952v1.66056h2.581192c.05061 0 .100914.08007.100914.318018v1.1851752c0 .158946-.0503.2376886-.100914.2376886h-2.581192v1.503184c0 .1579389-.05083.3147352-.101438.3147352h-.75896zm-23.84934231-.0786418c-.0506105 0-.10091395-.1570481-.10091395-.2360508l-.0257535-.4753765h-4.88591974c-.050608 0-.1014386-.1586937-.1014386-.2376965v-1.3441804c0-.078978.05083-.2360516.1014386-.2360516h2.4808028v-1.8982484h-2.6326983c-.025293 0-.076213-.07999-.076213-.159005v-1.34418c0-.157904.05083-.237696.1014407-.237696h2.6074702v-3.47848c0-.158988.025269-.318009.07621-.318009h.7847127c.0506209 0 .0762103.159021.0762103.318009v3.47848h2.6074723c.025296 0 .075686.07948.075686.316381v1.186812c0 .157904-.050306.237688-.1009139.237688h-2.5822439v1.8982484h1.9489022c.1015571 0 .2535552.078138.3547759.2360516.1012235.2368991.1769709.4756033.2275813.8704406l.076213 1.1868128c.025296.1579045-.025699.2360508-.050985.2360508h-.96183684zm3.49414891 0c-.025293 0-.07621-.1570481-.07621-.2360508l.6328142-4.6669304c.025293-.157938.076057-.157367.1266673-.157367h.91138c.050607 0 .075752.157393.050459.316372l-.6832711 4.6652926c0 .078977-.076146.078642-.1014393.078642h-.8603975zm2.6326973 0c-.025293 0-.07621-.07839-.07621-.1573672v-2.135937h-.7342554c-.050607 0-.1009145-.078138-.1009145-.2360516v-1.3458164c0-.07898.050303-.237697.1009145-.237697h.7342554v-2.1343h-.9618365c-.025293 0-.075686-.07973-.075686-.237688v-1.34418c0-.07898.050392-.237688.075686-.237688h.7847123l-.8856269-3.558809c-.025293-.15793-.0001529-.316372.050459-.316372h.5061474v-6.484857c0-.473807.050674-.869592.1518954-1.106492.07592-.316934.1772667-.475384.3037945-.475384h3.6949249c.02699 0 .05081.0016.07779.08032l.226004 1.501556c0 .07898-.02347.237688-.05046.237688h-3.4673403v2.293304h2.4313976c.1518316 0 .2766473.158157.3542485.395056.1012262.316934.1245662.71225.1245662 1.108137v2.609676h.506147c.05061 0 .07796.158694.05098.237688l-.8335896 3.478489h.7321516c.05062 0 .128244.07973.128244.237688v1.34418c0 .07898-.07763.237688-.128244.237688h-.9618375v2.1343h.7358335c.02363 0 .100913.160079.100913.318017v1.2654964c0 .1579045-.0503.2360516-.100913.2360516h-.7358335v2.0572534c0 .1579045-.023497.2360508-.074112.2360508h-.7852373c-.025293 0-.07621-.078138-.07621-.2360508v-2.0572534h-.9618369v2.135937c0 .078894-.025077.1573672-.075685.1573672h-.785238zm6.3791321-.2360508c-.05062 0-.07463-.079734-.07463-.2376883v-1.0278082c0-.078978.05102-.2376882.07463-.2376882h2.482905v-1.1868127h-2.101848c-.178827 0-.330815-.158467-.432038-.475384-.10122-.315869-.151899-.71137-.151899-1.185177v-3.00474c0-.158979.05083-.316372.101442-.316372h.735305c.05061 0 .07463.157393.07463.316372v3.163745h1.774405v-3.401433c0-.157938.02403-.316372.07464-.316372h.785762c.02363 0 .07411.158434.07411.316372v3.401433h1.748125v-3.163745c0-.158979.0503-.316372.100913-.316372h.735833c.05062 0 .07411.157393.07411.316372v3.00474c0 .553826-.02385.948277-.101439 1.185177-.101224.316917-.252721.475384-.455166.475384h-2.102375v1.1868127h2.40617c.05061 0 .100914.1584419.100914.3163719v.9491245c0 .1579046-.0503.2376883-.100914.2376883h-5.823581zm-5.5182091-3.8768184h.9618369v-2.1343h-.9618369zm6.5063281-1.185175c-.02699 0-.07726-.07873-.07726-.237688v-.949125c0-.157905.0503-.236052.100914-.236052h1.167868c.05061 0 .100914.0778.100914.314736v.870441c0 .08007-.0503.237688-.100914.237688h-1.191519zm2.733087 0c-.05062 0-.100914-.07873-.100914-.237688v-.949125c0-.157905.0503-.236052.100914-.236052h1.190995c.02699 0 .07779.0778.07779.314736v.870441c0 .08007-.05083.237688-.101439.237688h-1.167343zm-12.7587889-.868796c-.050622 0-.075686-.239014-.075686-.318017l.6328142-4.427604c.025293-.07898.05083-.08032.1014392-.08032h.9113792c.050615 0 .075753.07973.050459.237688l-.6580446 4.429242c0 .07898-.05083.159012-.1014414.159012h-.8609201zm-7.493917-.634389c-.025293 0-.05083-.158694-.1014385-.237696l-1.2908595-4.427605c-.025293-.07898-.0001536-.237688.050459-.237688h.4304611c-.025293-.15793-.025218-.395844-.025218-.632752v-6.089793c0-.394846.050749-.790909.1266673-1.027808.1012233-.316917.2277593-.554068.4052331-.554068h4.60735653c.17713767 0 .32923797.158466.43046147.475384.075917.2369.1266672.632677.1266672 1.106492v6.327489c0 .15793.0000673.316062-.025215.395056h.5319002c.025323 0 .075753.158694.050457.237688l-1.31661338 4.427605c-.0252956.07898-.0760541.237696-.12666726.237696h-.91137986c-.0506105 0-.0762775-.316062-.0509816-.395064l1.01334337-3.480117h-3.94983597l1.0380472 3.480117c.025293.07898-.025159.395064-.050459.395064h-.9623615zm26.2281789-.159005h1.568898v-1.739243h-1.568898zm2.507083 0h1.545247v-1.739243h-1.545247zm-11.215643-.552431c-.02699 0-.07726-.07873-.07726-.237689v-.949123c0-.07898.0503-.236052.100914-.236052h1.167868c.05061 0 .100914.158442.100914.316372v.868803c0 .158955-.0503.237689-.100914.237689h-1.191519zm2.733087 0c-.05062 0-.100914-.07873-.100914-.237689v-.949123c0-.07898.0503-.236052.100914-.236052h1.190995c.02699 0 .07779.158442.07779.316372v.868803c0 .158955-.05083.237689-.101439.237689h-1.167343zm-9.3408536-.55406h1.0885042l.5056221-2.055616h-2.0498163zm8.1766616-.552432c-.02363 0-.07411-.158156-.07411-.395056v-.870441h-1.977282c-.124843 0-.252692-.159515-.326921-.475383-.0776-.237949-.101439-.631914-.101439-1.027809v-4.034185c0-.473807.02385-.869584.101439-1.106492.07423-.236899.175087-.395056.326921-.395056h1.977282v-1.186812c0-.632786.05068-1.106995.151899-1.422864.101218-.316918.225915-.475384.428357-.475384h2.787223c.05062 0 .124937.158442.175549.316372l.151896.949123c.02699.07898-.000269.237697-.05098.237697h-2.709437v1.581868h1.95048c.128215 0 .252995.158157.330597.395056.07423.236908.125093.632685.125093 1.106492v4.034185c0 .474864-.05086.87018-.125093 1.108137-.0776.236899-.202382.395055-.330597.395055h-1.95048v.949125c0 .07898-.0233.316372-.100913.316372zm7.139665-1.819565h1.568898v-1.739235h-1.568898zm2.507083 0h1.545247v-1.739235h-1.545247zm-11.242449-1.027808h1.521592v-1.186812h-1.521592zm2.456098 0h1.49479v-1.186812h-1.49479zm-9.4422916-.475376h1.9757076v-2.21462h-1.9757076zm-10.4813905-.552432h3.77271157v-1.976924h-3.77271157zm8.3296083 0c-.050608 0-.1014386-.07898-.1014386-.159004l-.8351672-7.038925c0-.15793.025077-.316372.075686-.316372h.911377c.050615 0 .076146.07973.1014414.237687l.8351673 7.038926c0 .07898-.025159.237688-.050459.237688h-.9366088zm9.1379758-1.662188h1.521592v-1.265505h-1.521592zm2.456098 0h1.49479v-1.265505h-1.49479zm-19.9236821-2.055616h3.77271157v-1.976933h-3.77271157zm30.3057371-9.173227c-.607336 0-1.0391-1.106936-1.0391-2.847372 0-1.818348.381313-2.372517.988643-2.847373.479115-.394829.580255-.6324.580255-1.185175 0-.553817-.151683-.872078-.42836-.872078-.303662 0-.583689.317976-.836744.950761-.0236.07898-.07411.07898-.07411 0l-.303795-1.186812c-.02698-.07898-.02698-.158694 0-.237688.354279-.949712.78277-1.34418 1.214647-1.34418.630952 0 1.086403 1.027967 1.086403 2.847364v.07864c0 1.581457-.327174 2.293842-.934507 2.768689-.533103.394837-.658043.632996-.658043 1.186812v.07873c0 .394829.151654.79011.404709.79011.22606 0 .455445-.316312.708499-.79011.02363-.07898.07446-.07898.101439 0l.252812 1.265495c.0236.07898.0236.236052 0 .236052-.303667.711763-.657865 1.108128-1.06275 1.108128zm-17.190596-.08032c-.027 0-.050459-.07864-.050459-.07864l-1.215697-9.01586c-.025293-.157938-.0001559-.316371.050459-.316371h.530851c.027 0 .050459.07998.050459.159004l.25281 1.976932h1.265629l.256491-1.976932c.02363-.07889.0505-.159004.07411-.159004h.532952c.05062 0 .07411.158433.07411.316371l-1.241452 9.015858s-.0235.07864-.05046.07864h-.529799zm7.820836 0c-.02363 0-.05046-.07839-.05046-.157367l-.658043-6.247169-.60706 6.168485c0 .15793-.024.157368-.05099.157368h-.580256c-.05061 0-.07743-.07814-.05046-.236052l.961837-9.015858c.02363-.07889.0505-.159004.07411-.159004h.482495c.02363 0 .05046.07999.05046.159004l.658043 6.009481.658045-6.009481c0-.07889.02664-.159004.07726-.159004h.455688c.05062 0 .07411.07999.07411.159004l.961835 9.015858c.02699.157896-.000269.236052-.05099.236052h-.556604c-.02363 0-.05046.000562-.05046-.157368l-.607585-6.168485-.657519 6.247169c0 .07889-.024.157367-.05098.157367h-.482495zm3.671272 0c-.02363 0-.0505-.07864-.07411-.07864l-1.214646-9.015858c-.02699-.157938.02347-.316371.05046-.316371h.529798c.02699 0 .05028.07998.07726.159004l.253337 1.976932h1.265103l.253338-1.976932c0-.07889.02686-.159004.05046-.159004h.556604c.05061 0 .07747.158433.05046.316371l-1.214646 9.015858c-.02363 0-.0505.07864-.07411.07864h-.509298zm-25.974319-.07864c-.025293 0-.050459-.07839-.050459-.157368v-8.937173c0-.157914.025159-.237688.050459-.237688h.5319004c.025293 0 .075685.07973.075685.237688v3.5588h1.1899457v-3.5588c0-.157914.050912-.237688.07621-.237688h.5313757c.025322 0 .050986.07973.050986.237688v8.937173c-.000003.07889-.025701.157368-.050986.157368h-.5313757c-.025293 0-.07621-.07839-.07621-.157368v-3.480124h-1.1899457v3.480124c0 .07889-.050392.157368-.075685.157368zm3.2408114 0c-.025322 0-.050457-.07839-.050457-.157368v-8.937173c0-.157914.025161-.237688.050457-.237688h.53190028c.0506187 0 .0756854.07973.0756854.237688v8.937173c0 .07889-.0250804.157368-.0756854.157368zm1.89897007 0c-.0252956 0-.0504569.000311-.0504569-.07864l-1.01334342-4.42925v-.237688l1.01334342-4.506288s.0251346-.08032.0504569-.08032h.58183243c.05095 0 .1015922.237403.050982.316372l-.96236166 4.350558.96236166 4.34892c.050611.157938-.0000323.31638-.050982.31638h-.58183243zm2.27844983 0c-.025322 0-.050459-.07839-.050459-.157368v-1.503192c0-.157913.025159-.237688.050459-.237688h.860923v-7.196293c0-.157914.025159-.237688.050459-.237688h.5319004c.050622 0 .075685.07973.075685.237688v7.196293h.8356942c.025293 0 .075686.07973.075686.237688v1.503192c0 .07889-.050392.157368-.075686.157368h-2.3546595zm2.9874737 0c-.025293 0-.07621-.07839-.07621-.157368v-8.937173c0-.157905.050912-.237688.07621-.237688h.5319001c.025322 0 .050459.07973.050459.237688v2.768688h.5319033l.6070607-2.926056c.025322 0 .050459-.08032.050459-.08032h.6333389c.050615 0 .075753.237369.050459.316371l-.6580423 3.006378c.3795819.473806.6328142 1.423568.6328142 2.926057 0 .869684-.1015038 1.659443-.2533376 2.134299-.2024414.632794-.5060415.949124-.8856235.949124h-1.2913846zm6.455342 0c-.02363 0-.07463-.07839-.07463-.157368v-8.937173c0-.157914.05102-.237688.07463-.237688h.506147c.05063 0 .07726.07973.07726.237688v5.852113l.833593-3.953865.863549 3.953865v-5.852113c0-.157914.024-.237688.05098-.237688h.529274c.027 0 .05098.07973.05098.237688v8.937173c0 .07889-.024.157368-.05098.157368h-.607061c-.02363 0-.05046.000311-.05046-.07864l-.786287-3.875181-.759483 3.875181c0 .07898-.0235.07864-.05046.07864h-.607061zm10.75943 0c-.05062 0-.101065-.158441-.05046-.31638l1.06275-5.298044v-3.480117c0-.157914.05082-.237688.07779-.237688h.529795c.027 0 .05046.07973.05046.237688v3.480117l1.090083 5.298044c.02699.157939-.000269.31638-.05099.31638h-.580256c-.02699 0-.05029.000311-.07726-.07864l-.685373-3.637493-.7085 3.637493c0 .07898-.02347.07864-.05046.07864h-.607589zm-16.632415-1.817928h.658046c.3289714 0 .531375-.474494.531375-1.34418 0-.790732-.2024815-1.345825-.5061469-1.345825h-.6832741zm3.746958-.554068.405233-3.004732h-.7862864zm11.495787 0 .377904-3.004732h-.78629zm-13.3185459-13.0484c-.076253 0-.1521922-.0799-.2281065-.159004-.050615-.07915-.1265138-.158233-.1771265-.316381-.050608-.07906-.076143-.236907-.1014393-.395055-.025322-.23732-.050459-.395526-.050459-.632752 0-.237319.025159-.474605.050459-.632745.0253-.158248.05083-.236915.1014393-.395064.050615-.07906.1012849-.237269.1518984-.316371.075914-.07906.1517744-.07982.2533346-.159005.075914-.07906.1265138-.157368.1771265-.157368.050608-.07906.076143-.159004.1014393-.159004.025322-.07906.050459-.156948.050459-.236052.025293-.07914.025211-.158592.025211-.237696 0-.237218-.025589-.396273-.07621-.475377-.050608-.07915-.126441-.157367-.2023553-.157367-.1015595 0-.2026485.07814-.2785628.157367-.07592.07906-.1516698.238167-.2275841.475377l-.1771245-.632744c.101221-.237218.2020488-.474503.3032669-.632752.126527-.07906.2532159-.159004.3547761-.159004.1012233 0 .1774196.000822.2533369.08032.050615.07906.1265137.158123.1771242.316372.050615.158149.075766.3156.1003892.473748.050615.158257.050459.395534.050459.632744 0 .237319-.0000371.39592-.023653.554068-.026992.15814-.051357.315953-.1019662.395056-.050607.158148-.1012826.237277-.1518961.31638-.075917.07906-.1516639.158476-.2275812.237688-.075914.07906-.1522672.07831-.20288.157368-.050607.07906-.07606.0799-.1266673.159004-.025322.07906-.050459.156948-.050459.236052 0 .07906-.025211.158585-.025211.237688 0 .158157.025078.315961.075685.395064.050608.158215.1266243.237688.2028778.237688.075914 0 .1517425-.07814.2023553-.157367.075914-.07906.1516646-.238553.2275811-.396701l.1513715.632753c-.075242.237217-.176368.396281-.2522853.475383-.101221.158216-.2024955.237689-.3290226.237689zm5.2138899 0c-.07423 0-.151774-.0799-.226004-.159004-.07761-.07915-.151745-.236916-.202353-.395065-.05062-.15814-.101269-.316732-.128246-.55406-.0236-.158148-.02365-.395433-.02365-.632752v-.07864c0-.237219.000038-.395426.02365-.632745.02699-.158148.07763-.394644.128246-.473748.05061-.158248.100793-.237268.175023-.316372.0776-.07906.152079-.159004.229683-.159004.101221 0 .175394.0799.226007.159004.0776.07906.128282.236799.151896.395056 0-.237327-.000038-.474604-.02365-.632743-.02699-.237328-.05081-.395929-.07779-.554069-.02363-.07906-.07396-.237168-.124566-.316372-.05062-.07915-.101286-.07864-.151898-.07864-.0776 0-.128124-.000419-.202353.07864-.05062.07915-.1011.236908-.178702.395056l-.1519-.711436c.0776-.15814.151557-.315952.229161-.395056.07423-.158148.175762-.159005.276986-.159005.128214 0 .22904.0799.303269.159005.0776.158249.152081.31685.229683.554068.05062.237328.100952.552508.124566.868796.027.395466.05099.712762.05099 1.108128v.07873c0 .474545-.024.870415-.05099 1.186813-.05061.237218-.100761.553287-.151372.711427-.05061.158148-.124936.315852-.175547.395064-.0776.07906-.178921.159004-.280143.159004zm1.623034 0c-.101218 0-.202538-.07948-.28014-.237689-.10122-.158148-.175394-.31685-.226007-.554068-.0776-.237318-.101288-.473714-.151896-.79012-.027-.316288-.05046-.713156-.05046-1.029445 0-.395474.02347-.711411.05046-1.027807.05061-.316288.07429-.631469.151896-.868795.05061-.237219.124787-.39582.226007-.554069.0776-.07906.178922-.159004.28014-.159004.101224 0 .202232.0799.276464.159004.101221.158249.179073.31685.229683.554069.07423.237326.124921.552507.151899.868795.02363.316396.05046.632333.05046 1.027807 0 .316289-.02686.713157-.05046 1.029445-.02699.316406-.07767.552802-.151899.79012-.05061.237218-.128123.39592-.202353.554068-.101223.158216-.20257.237689-.303794.237689zm-8.8877903-.08032v-5.060356h1.2151745v.79012h-.9366088v1.34418h.8099385v.791756h-.8099385v1.265497h.9113777v.868803zm2.9123164 0v-.868803h.5061469v-4.191553h.2764617v4.191553h.5329523v.868803zm3.2155799 0-.455687-.395064.0741-.790111.28014.316372v-4.191553h.276461v5.060356h-.175022zm4.581601 0-.910852-3.321112.05046-.632752h.833593v-1.106492h.252809v1.106492h.229683v.711436h-.229683v3.242428h-.226007zm-3.444741-.711436c.128215 0 .2022-.0794.252813-.237688.0776-.237218.101439-.395038.101439-.711436 0-.07906-.000038-.237269-.02365-.316372-.02699-.158148-.02718-.237277-.07779-.31638-.02363-.07906-.0503-.157368-.100914-.157368-.02363-.07906-.07448-.08032-.125093-.08032-.101224 0-.178581.07957-.25281.237689-.05062.158257-.07779.395534-.07779.632752 0 .158149.000269.236908.02733.395056 0 .07906.0235.158232.05046.31638.02363.07906.07393.159005.100913.159005.05061.07906.07448.07864.125091.07864zm1.623034 0c.05062 0 .124937-.07814.17555-.157367.05061-.07906.07763-.238553.128244-.396701.02363-.158148.0505-.394275.07411-.552424.02698-.237218.0268-.475854.0268-.713073 0-.316296.000172-.553287-.0268-.711427-.02363-.237218-.0505-.474613-.07411-.632753-.05061-.158148-.07763-.237268-.128244-.316372-.05062-.158265-.101318-.157367-.17555-.157367-.05061 0-.128088-.000822-.178701.157367-.05061.07906-.07448.159483-.125091.396693-.02699.158149-.05081.315214-.07779.552432-.0236.23721-.02365.47421-.02365.711427 0 .237219.00004.475855.02365.713073.02699.237219.05082.394276.07779.552424.05061.158148.07448.317597.125091.396701.05061.07914.1011.157367.178701.157367zm1.794905-.473739v-2.057253h-.529799zm-21.6707573-1.503193v-.237688h9.8995581v.237688zm23.0914353 0v-.237688h9.895879v.237688zm-7.648968-1.422864v-.949124h.3306v.949124z" fill="#007549"/></g></svg>