<svg width="134" height="40" viewBox="0 0 134 40" fill="none" xmlns="http://www.w3.org/2000/svg">
<mask id="mask0_147_332" style="mask-type:alpha" maskUnits="userSpaceOnUse" x="0" y="0" width="134" height="40">
<rect width="134" height="39.9999" fill="#D9D9D9"/>
</mask>
<g mask="url(#mask0_147_332)">
<path d="M50.3245 23.0041H51.667C51.7584 23.0041 51.8324 23.078 51.8324 23.1692V26.0066H54.9177V23.1692C54.9177 23.078 54.9918 23.0041 55.0827 23.0041H56.4252C56.5166 23.0041 56.5906 23.078 56.5906 23.1692V30.4272C56.5906 30.5184 56.5166 30.5918 56.4252 30.5918H55.0827C54.9918 30.5918 54.9177 30.5184 54.9177 30.4272V27.5458H51.8324V30.4272C51.8324 30.5184 51.7584 30.5918 51.667 30.5918H50.3245C50.2331 30.5918 50.159 30.5184 50.159 30.4272V23.1692C50.159 23.078 50.2331 23.0041 50.3245 23.0041Z" fill="#007549"/>
<path d="M71.3742 24.5439H69.2254C69.134 24.5439 69.0605 24.47 69.0605 24.3788V23.1697C69.0605 23.0785 69.134 23.0047 69.2254 23.0047H75.1959C75.2873 23.0047 75.3614 23.0785 75.3614 23.1697V24.3788C75.3614 24.47 75.2873 24.5439 75.1959 24.5439H73.0471V30.4277C73.0471 30.5184 72.9731 30.5923 72.8822 30.5923H71.5396C71.4483 30.5923 71.3742 30.5184 71.3742 30.4277V24.5439Z" fill="#007549"/>
<path d="M76.6429 23.1692C76.6429 23.078 76.717 23.0047 76.8084 23.0047H80.1196C81.0865 23.0047 81.8361 23.2756 82.3356 23.774C82.7594 24.1969 82.9874 24.7928 82.9874 25.5087V25.5302C82.9874 26.755 82.3251 27.5248 81.3581 27.8823L83.0389 30.3344C83.114 30.444 83.0352 30.5923 82.9023 30.5923H81.3486C81.2935 30.5923 81.242 30.565 81.211 30.5189L79.6306 28.1642H78.3159V30.4272C78.3159 30.5184 78.2423 30.5923 78.1509 30.5923H76.8084C76.717 30.5923 76.6429 30.5184 76.6429 30.4272V23.1692ZM80.0108 26.69C80.8255 26.69 81.293 26.2566 81.293 25.6167V25.5952C81.293 24.8798 80.7929 24.5114 79.9783 24.5114H78.3159V26.69H80.0108Z" fill="#007549"/>
<path d="M87.2131 22.9502H88.5372C88.6034 22.9502 88.6633 22.99 88.6896 23.0508L91.8079 30.3627C91.8542 30.4717 91.7743 30.5923 91.6556 30.5923H90.2679C90.2007 30.5923 90.1403 30.5519 90.1151 30.4896L89.4617 28.8906H86.2456L85.5922 30.4896C85.5669 30.5519 85.5066 30.5923 85.4393 30.5923H84.0947C83.9765 30.5923 83.8962 30.4717 83.9429 30.3627L87.0613 23.0508C87.087 22.99 87.1469 22.9502 87.2131 22.9502ZM88.8639 27.4164L87.8534 24.9558L86.8433 27.4164H88.8639Z" fill="#007549"/>
<path d="M93.2439 23.0041H94.7903C94.8475 23.0041 94.9006 23.0335 94.9305 23.0817L96.8813 26.2126L98.8315 23.0817C98.8614 23.0335 98.9145 23.0041 98.9717 23.0041H100.518C100.609 23.0041 100.684 23.078 100.684 23.1692V30.4272C100.684 30.5184 100.609 30.5918 100.518 30.5918H99.1866C99.0952 30.5918 99.0211 30.5184 99.0211 30.4272V25.6382L96.8813 28.8796H96.8377L94.7193 25.6707V30.4272C94.7193 30.5184 94.6453 30.5918 94.5539 30.5918H93.2439C93.1525 30.5918 93.0785 30.5184 93.0785 30.4272V23.1692C93.0785 23.078 93.1525 23.0041 93.2439 23.0041Z" fill="#007549"/>
<path d="M102.151 23.0041H103.591C103.664 23.0041 103.728 23.0513 103.749 23.121L105.288 28.1422L106.957 23.0959C106.979 23.0282 107.042 22.9827 107.114 22.9827H108.309C108.38 22.9827 108.443 23.0282 108.466 23.0959L110.134 28.1422L111.673 23.121C111.694 23.0513 111.758 23.0041 111.831 23.0041H113.227C113.341 23.0041 113.42 23.1152 113.384 23.2222L110.9 30.5341C110.877 30.6012 110.814 30.6463 110.743 30.6463H109.523C109.453 30.6463 109.391 30.6017 109.367 30.5352L107.689 25.6817L106.011 30.5352C105.989 30.6017 105.926 30.6463 105.855 30.6463H104.635C104.565 30.6463 104.502 30.6012 104.479 30.5341L101.995 23.2222C101.958 23.1152 102.038 23.0041 102.151 23.0041Z" fill="#007549"/>
<path d="M116.435 22.9502H117.759C117.825 22.9502 117.885 22.99 117.911 23.0508L121.029 30.3627C121.076 30.4717 120.996 30.5923 120.877 30.5923H119.489C119.422 30.5923 119.362 30.5519 119.337 30.4896L118.683 28.8906H115.467L114.814 30.4896C114.789 30.5519 114.728 30.5923 114.661 30.5923H113.316C113.198 30.5923 113.118 30.4717 113.164 30.3627L116.283 23.0508C116.309 22.99 116.368 22.9502 116.435 22.9502ZM118.086 27.4164L117.075 24.9558L116.065 27.4164H118.086Z" fill="#007549"/>
<path d="M123.246 27.6003L120.484 23.2573C120.414 23.1477 120.493 23.0041 120.624 23.0041H122.185C122.243 23.0041 122.297 23.0351 122.327 23.0848L124.093 26.0501L125.892 23.0838C125.922 23.0345 125.975 23.0041 126.033 23.0041H127.539C127.67 23.0041 127.749 23.1483 127.679 23.2578L124.918 27.5678V30.4272C124.918 30.5184 124.844 30.5923 124.754 30.5923H123.411C123.32 30.5923 123.246 30.5184 123.246 30.4272V27.6003Z" fill="#007549"/>
<path d="M128.087 29.3607L128.867 28.4289C128.924 28.3597 129.025 28.3508 129.096 28.4064C129.743 28.911 130.425 29.2265 131.241 29.2265C131.925 29.2265 132.338 28.9556 132.338 28.5112V28.4892C132.338 28.0667 132.077 27.8498 130.806 27.5249C129.274 27.1344 128.286 26.7115 128.286 25.2048V25.1833C128.286 23.8065 129.394 22.8962 130.947 22.8962C131.996 22.8962 132.899 23.207 133.647 23.7641C133.718 23.817 133.733 23.9181 133.682 23.9905L132.995 24.9846C132.944 25.0585 132.843 25.0763 132.767 25.0271C132.141 24.6157 131.523 24.3704 130.926 24.3704C130.284 24.3704 129.948 24.6629 129.948 25.0313V25.0533C129.948 25.5517 130.274 25.7142 131.588 26.0506C133.131 26.4515 134 27.0044 134 28.3267V28.3482C134 29.8549 132.849 30.7008 131.208 30.7008C130.108 30.7008 128.999 30.335 128.106 29.5939C128.036 29.5357 128.028 29.4304 128.087 29.3607Z" fill="#007549"/>
<path d="M58.5734 23.0041H59.9296C60.0168 23.0041 60.0877 23.0749 60.0877 23.1619V30.434C60.0877 30.5215 60.0168 30.5918 59.9296 30.5918H58.5734C58.4863 30.5918 58.4153 30.5215 58.4153 30.434V23.1619C58.4153 23.0749 58.4863 23.0041 58.5734 23.0041Z" fill="#007549"/>
<path d="M64.9058 23.0041H63.401C63.3469 23.0041 63.2965 23.0303 63.2655 23.0744L60.7165 26.7031C60.6765 26.7602 60.6765 26.8357 60.7165 26.8928L63.2655 30.5215C63.2965 30.5656 63.3469 30.5918 63.401 30.5918H64.9058C65.0398 30.5918 65.118 30.4414 65.0414 30.3318L62.559 26.7979L65.0414 23.2641C65.1186 23.1545 65.0398 23.0041 64.9058 23.0041Z" fill="#007549"/>
<path d="M77.9622 35.6523H81.0065V36.3032H78.6796V37.3587H80.7423V38.0096H78.6796V39.1065H81.0364V39.7574H77.9622V35.6523Z" fill="#007549"/>
<path d="M83.3457 39.8156C83.0284 39.8156 82.7248 39.7621 82.4349 39.6547C82.145 39.5472 81.8766 39.3816 81.6297 39.1589L82.0646 38.6427C82.2642 38.8151 82.4659 38.9466 82.6697 39.0389C82.8735 39.1306 83.1046 39.1767 83.3635 39.1767C83.5868 39.1767 83.7638 39.1295 83.8956 39.0357C84.0264 38.9419 84.0921 38.8172 84.0921 38.6605V38.6484C84.0921 38.5745 84.0795 38.509 84.0537 38.4519C84.0285 38.3958 83.9812 38.3419 83.9124 38.291C83.8436 38.2407 83.7496 38.1935 83.6298 38.1506C83.5095 38.1071 83.3536 38.0646 83.1613 38.0216C82.9412 37.9703 82.7459 37.9132 82.5746 37.8482C82.4039 37.7837 82.2605 37.7056 82.145 37.6139C82.0289 37.5217 81.9406 37.4095 81.8797 37.2764C81.8188 37.1438 81.7883 36.9834 81.7883 36.7953V36.7838C81.7883 36.6082 81.8235 36.4468 81.8934 36.3C81.9632 36.1533 82.0593 36.028 82.1817 35.9248C82.3041 35.821 82.4512 35.7403 82.6235 35.6811C82.7952 35.6229 82.9833 35.5931 83.187 35.5931C83.4886 35.5931 83.7601 35.6376 84.0012 35.7251C84.2423 35.8132 84.4681 35.9411 84.6798 36.1093L84.2922 36.6548C84.1036 36.5181 83.9177 36.4138 83.7339 36.3409C83.5495 36.2686 83.3635 36.2324 83.1755 36.2324C82.9638 36.2324 82.7994 36.2796 82.6818 36.3734C82.5641 36.4672 82.5053 36.5825 82.5053 36.7198V36.7314C82.5053 36.8089 82.5189 36.8786 82.5468 36.9394C82.5741 36.9997 82.624 37.0547 82.697 37.1035C82.7695 37.1527 82.8698 37.1983 82.9974 37.2413C83.1246 37.2843 83.2869 37.3293 83.4833 37.3765C83.6997 37.431 83.8909 37.4918 84.0579 37.5578C84.225 37.6244 84.3631 37.7056 84.4734 37.8015C84.5832 37.8969 84.6667 38.0085 84.7239 38.1359C84.7806 38.2627 84.809 38.4105 84.809 38.5787V38.5903C84.809 38.7821 84.7733 38.9535 84.7013 39.106C84.6294 39.2585 84.5291 39.3874 84.4014 39.4933C84.2728 39.5986 84.1188 39.6793 83.9387 39.7333C83.7591 39.7883 83.561 39.8156 83.3457 39.8156Z" fill="#007549"/>
<path d="M86.6725 36.3205H85.3677V35.6523H88.7062V36.3205H87.4015V39.7575H86.6725V36.3205Z" fill="#007549"/>
<rect x="89.3408" y="38.9536" width="0.782092" height="0.803414" fill="#007549"/>
<path d="M93.3313 36.3559L92.5907 36.5613L92.4379 35.9743L93.543 35.6227H94.0488V39.7571H93.3313V36.3559Z" fill="#007549"/>
<path d="M96.3702 39.8276C96.0839 39.8276 95.837 39.782 95.6296 39.6908C95.4216 39.5996 95.2299 39.4828 95.0533 39.3397L95.4473 38.7899C95.6038 38.9225 95.7562 39.0205 95.9027 39.0829C96.0498 39.1453 96.2115 39.1767 96.3875 39.1767C96.5403 39.1767 96.6764 39.1453 96.7961 39.0829C96.9159 39.0195 97.0178 38.9304 97.1018 38.8146C97.1859 38.6988 97.2515 38.5614 97.2988 38.4021C97.3455 38.2428 97.3729 38.0693 97.3807 37.8807C97.2788 38.0059 97.1486 38.1097 96.99 38.1914C96.8313 38.2737 96.6407 38.3151 96.4174 38.3151C96.1979 38.3151 95.9988 38.2842 95.8208 38.2239C95.6422 38.1631 95.4893 38.0761 95.3622 37.9624C95.2346 37.8492 95.1359 37.7124 95.0655 37.5526C94.9951 37.3922 94.9594 37.2119 94.9594 37.0128V37.0007C94.9594 36.8016 94.9966 36.615 95.0712 36.441C95.1453 36.267 95.2503 36.1161 95.3859 35.9893C95.5208 35.8624 95.6826 35.7629 95.8706 35.69C96.0587 35.6182 96.2662 35.5815 96.4936 35.5815C96.752 35.5815 96.9705 35.6182 97.1486 35.69C97.3271 35.7629 97.4884 35.8713 97.6339 36.0155C97.7868 36.1685 97.9081 36.3671 97.9984 36.6113C98.0882 36.8556 98.1334 37.1789 98.1334 37.5819V37.5935C98.1334 37.9215 98.093 38.2239 98.0126 38.4991C97.9322 38.7753 97.8167 39.0106 97.6659 39.2061C97.5152 39.4021 97.3298 39.554 97.1108 39.6636C96.8912 39.7731 96.6443 39.8276 96.3702 39.8276ZM96.5199 37.7109C96.6496 37.7109 96.7667 37.6909 96.8707 37.6516C96.9753 37.6129 97.0635 37.5594 97.1365 37.4907C97.209 37.4221 97.2641 37.3445 97.3014 37.256C97.3387 37.1679 97.3576 37.0736 97.3576 36.9714V36.9598C97.3576 36.745 97.2799 36.5647 97.1244 36.4206C96.969 36.2759 96.7599 36.2036 96.4962 36.2036C96.3665 36.2036 96.2515 36.223 96.1512 36.2623C96.0508 36.3011 95.9652 36.3561 95.8948 36.4263C95.8239 36.4966 95.7698 36.5783 95.7325 36.6695C95.6952 36.7612 95.6763 36.8603 95.6763 36.9656V36.9777C95.6763 37.1925 95.7519 37.3686 95.9032 37.5054C96.055 37.6422 96.2604 37.7109 96.5199 37.7109Z" fill="#007549"/>
<path d="M100.59 39.8276C100.32 39.8276 100.075 39.7726 99.8552 39.6631C99.6357 39.5535 99.4476 39.4031 99.2911 39.2113C99.1341 39.0205 99.0133 38.7967 98.9292 38.54C98.8452 38.2842 98.8032 38.0091 98.8032 37.7166V37.7046C98.8032 37.4116 98.8462 37.1354 98.9324 36.8776C99.0185 36.6197 99.1399 36.3944 99.2969 36.2036C99.4534 36.0118 99.6425 35.8603 99.8642 35.7492C100.085 35.6376 100.331 35.5815 100.602 35.5815C100.872 35.5815 101.117 35.6365 101.336 35.7461C101.555 35.8556 101.742 36.006 101.897 36.1973C102.052 36.3886 102.173 36.6124 102.259 36.8692C102.345 37.1249 102.388 37.3995 102.388 37.6925V37.7046C102.388 37.9975 102.345 38.2737 102.259 38.5316C102.173 38.7894 102.051 39.0148 101.895 39.2055C101.738 39.3973 101.549 39.5488 101.328 39.6599C101.106 39.7715 100.86 39.8276 100.59 39.8276ZM100.602 39.1767C100.762 39.1767 100.906 39.1385 101.033 39.0619C101.161 38.9859 101.27 38.8822 101.36 38.7512C101.45 38.6207 101.519 38.4655 101.568 38.2879C101.617 38.1102 101.642 37.9194 101.642 37.7166V37.7046C101.642 37.5012 101.616 37.311 101.565 37.1328C101.514 36.9551 101.444 36.7995 101.354 36.6664C101.264 36.5338 101.153 36.4284 101.022 36.3498C100.891 36.2717 100.747 36.2324 100.59 36.2324C100.429 36.2324 100.285 36.2707 100.158 36.3467C100.031 36.4232 99.9214 36.527 99.8316 36.658C99.7413 36.7885 99.6719 36.9436 99.6231 37.1207C99.5742 37.2989 99.5495 37.4897 99.5495 37.6925V37.7046C99.5495 37.9079 99.5742 38.0981 99.6231 38.2763C99.6719 38.454 99.7423 38.6096 99.8342 38.7422C99.9267 38.8754 100.037 38.9807 100.167 39.0593C100.296 39.1374 100.441 39.1767 100.602 39.1767Z" fill="#007549"/>
<path d="M105.145 38.8366H103.07L102.935 38.3209L105.222 35.6229H105.838V38.2444H106.426V38.8366H105.838V39.7574H105.145V38.8366ZM105.145 38.2444V36.6197L103.794 38.2444H105.145Z" fill="#007549"/>
<path d="M67.1202 11.7642H65.7803C65.8176 11.857 65.8365 11.9686 65.8365 12.0802V17.2424C65.8365 17.6328 65.7246 17.9483 65.5198 18.1522C65.2592 18.3943 64.9058 18.5243 64.4404 18.5243H52.6959C52.2678 18.5243 51.8954 18.3566 51.6532 18.0783C51.4673 17.8556 51.3554 17.5584 51.3554 17.2057V12.2652C51.3554 12.0802 51.3743 11.9125 51.43 11.7642H50.295C50.1831 11.7642 50.0901 11.6154 50.1642 11.5415L53.4963 7.93842C53.5704 7.88286 53.6634 7.80845 53.7569 7.80845H56.1761C56.2696 7.80845 56.3437 8.01231 56.288 8.06839L53.6634 10.91H63.7518L61.1271 8.06839C61.0714 8.01231 61.146 7.80845 61.239 7.80845H63.6026C63.6961 7.80845 63.8448 7.88286 63.9004 7.93842L67.251 11.5415C67.325 11.6154 67.2321 11.7642 67.1202 11.7642ZM66.5246 7.27022H59.8986V10.1113C59.8986 10.2412 59.8245 10.3712 59.7126 10.3712H57.7398C57.6096 10.3712 57.5166 10.2229 57.5166 10.1113V7.27022H50.8717C50.7603 7.27022 50.6301 7.17693 50.6301 7.08417V6.00718C50.6301 5.89555 50.7414 5.82113 50.8533 5.82113H57.5166V4.29816H51.2257C51.1138 4.29816 50.9836 4.2054 50.9836 4.11316V3.03565C50.9836 2.92455 51.0949 2.85013 51.2068 2.85013H63.6399L63.7329 2.44134C63.7518 2.34806 63.8637 2.23695 63.975 2.23695H66.4132C66.5062 2.23695 66.6181 2.32972 66.5808 2.44134L66.3386 3.38836C66.2646 3.70438 66.0413 3.94545 65.7619 4.09377C65.5014 4.24261 65.1663 4.29816 64.8685 4.29816H59.8986V5.82113H66.5062C66.637 5.82113 66.7667 5.9139 66.7667 6.02553V7.00975C66.7667 7.17693 66.637 7.27022 66.5246 7.27022ZM63.3978 12.3768H53.7936V13.9926H63.3978V12.3768ZM63.3978 15.4417H53.7936V17.0574H63.3978V15.4417Z" fill="#007549"/>
<path d="M75.3656 18.3566C75.3288 18.431 75.2358 18.5054 75.1424 18.5054H72.7971C72.6858 18.5054 72.5923 18.3755 72.6296 18.2827L74.7332 12.5257C74.7699 12.4513 74.9007 12.3957 74.9937 12.3957H77.3762C77.4692 12.3957 77.5433 12.5073 77.506 12.5812L75.3656 18.3566ZM76.8363 11.2071H74.491C74.3792 11.2071 74.2862 11.1882 74.2489 11.0955L72.6296 7.49294C72.6112 7.45521 72.7041 7.28855 72.7971 7.28855H75.031C75.1051 7.28855 75.2358 7.32576 75.2731 7.40018L76.9476 10.9844C77.0038 11.0955 76.9108 11.2071 76.8363 11.2071ZM76.9292 6.35988H74.6029C74.491 6.35988 74.3608 6.34102 74.3235 6.24825L72.7041 2.42247C72.6858 2.38579 72.7787 2.21861 72.8717 2.21861H75.0683C75.1424 2.21861 75.3099 2.25581 75.3472 2.32971L77.0411 6.13715C77.0968 6.24825 77.0411 6.35988 76.9292 6.35988ZM88.8413 18.431C88.804 18.4866 88.73 18.5243 88.6737 18.5243H79.2556C78.9393 18.5243 78.6604 18.3755 78.4556 18.1522C78.2324 17.9295 78.1016 17.5951 78.1016 17.2424V11.9497H76.8363C76.706 11.9497 76.6314 11.8197 76.6871 11.727L78.9021 8.79319H76.9665C76.8552 8.79319 76.7244 8.6999 76.7244 8.60714V7.53015C76.7244 7.41852 76.8552 7.3441 76.9665 7.3441H79.4047V5.56119H77.506C77.3946 5.56119 77.2643 5.46842 77.2643 5.37566V4.29815C77.2643 4.18705 77.3946 4.11315 77.506 4.11315H79.4047V2.38579C79.4047 2.31137 79.5166 2.21861 79.6096 2.21861H81.5824C81.6754 2.21861 81.7872 2.29302 81.7872 2.38579V4.11315H84.2444V2.42247C84.2444 2.32971 84.3184 2.21861 84.4119 2.21861H86.422C86.515 2.21861 86.6263 2.31137 86.6263 2.42247V4.11315H88.4505C88.5808 4.11315 88.711 4.20539 88.711 4.31702V5.35679C88.711 5.48677 88.5624 5.56119 88.4505 5.56119H86.6263V7.3441H89.0835C89.2137 7.3441 89.344 7.43687 89.344 7.5485V8.58879C89.344 8.71824 89.1948 8.79319 89.0835 8.79319H87.1663L89.3256 11.6342C89.3997 11.727 89.3256 11.857 89.2137 11.857H87.9106V13.937C87.9106 14.2714 87.7992 14.6058 87.5571 14.8468C87.3522 15.0512 87.0544 15.1812 86.6453 15.1812H80.503V17.0569H89.2883C89.3997 17.0569 89.4369 17.1874 89.418 17.2424L88.8413 18.431ZM84.3 8.79319H81.5267L80.3355 10.4828H85.547L84.3 8.79319ZM85.528 11.9497H80.503V13.7321H85.528V11.9497ZM84.2444 5.56119H81.7878V7.3441H84.2444V5.56119Z" fill="#007549"/>
<path d="M111.102 8.6999H109.204C109.073 8.6999 108.999 8.55106 108.999 8.43996V5.83948H104.513V8.60714C104.513 8.73711 104.42 8.86709 104.308 8.86709H102.354C102.224 8.86709 102.149 8.71825 102.149 8.60714V5.83948H97.645V8.43996C97.645 8.56941 97.552 8.6999 97.4407 8.6999H95.5419C95.4116 8.6999 95.337 8.55106 95.337 8.43996V6.00718C95.337 5.58006 95.4673 5.2457 95.6911 5.02296C95.9511 4.74415 96.3234 4.61418 96.7704 4.61418H102.149V3.6483H95.8397C95.7278 3.6483 95.5976 3.55606 95.5976 3.46278V2.60853C95.5976 2.49742 95.7094 2.42248 95.8213 2.42248H110.618C110.748 2.42248 110.879 2.51576 110.879 2.62687V3.38836C110.879 3.55606 110.748 3.6483 110.637 3.6483H104.513V4.61418H109.874C110.395 4.61418 110.767 4.72528 111.009 4.98575C111.214 5.20849 111.307 5.54285 111.307 6.00718V8.43996C111.307 8.56941 111.214 8.6999 111.102 8.6999ZM111.139 18.2455C111.046 18.3943 110.823 18.5054 110.693 18.5054H103.62C103.136 18.5054 102.763 18.3755 102.522 18.1155C102.261 17.8556 102.149 17.484 102.149 16.9636V16.0171H97.105C96.7331 16.0171 96.4542 15.9055 96.2678 15.72C96.0818 15.4967 95.9883 15.1995 95.9883 14.8101V11.4854C95.9883 11.1699 96.0818 10.8727 96.2678 10.6683C96.4726 10.4273 96.7704 10.2968 97.105 10.2968H102.131V9.55363C102.131 9.40532 102.242 9.27534 102.335 9.27534H104.29C104.439 9.27534 104.495 9.42418 104.495 9.53529V10.2968H109.464C109.818 10.2968 110.116 10.4084 110.32 10.6128C110.543 10.8172 110.655 11.1327 110.655 11.4854V14.8101C110.655 15.1812 110.543 15.4784 110.339 15.6827C110.116 15.9055 109.818 16.0171 109.464 16.0171H104.495V17.2796H111.419C111.53 17.2796 111.623 17.4101 111.549 17.5212L111.139 18.2455ZM101.386 7.71568H98.3709C98.2595 7.71568 98.1293 7.62292 98.1293 7.53016V6.7498C98.1293 6.6387 98.2406 6.56428 98.3525 6.56428H101.367C101.498 6.56428 101.628 6.65704 101.628 6.76867V7.45521C101.628 7.62292 101.498 7.71568 101.386 7.71568ZM101.386 9.4986H98.3709C98.2595 9.4986 98.1293 9.40532 98.1293 9.31255V8.53272C98.1293 8.42109 98.2406 8.34667 98.3525 8.34667H101.367C101.498 8.34667 101.628 8.43996 101.628 8.55106V9.23866C101.628 9.40532 101.498 9.4986 101.386 9.4986ZM98.2963 11.5415V12.5257H102.131L102.149 11.5415H98.2963ZM102.149 13.751H98.2968V14.7724H102.149V13.751ZM108.347 11.5415H104.495V12.5257H108.347V11.5415ZM108.347 13.751H104.495V14.7724H108.347V13.751ZM108.31 7.71568H105.295C105.183 7.71568 105.053 7.62292 105.053 7.53016V6.7498C105.053 6.6387 105.164 6.56428 105.276 6.56428H108.292C108.422 6.56428 108.552 6.65704 108.552 6.76867V7.45521C108.552 7.62292 108.422 7.71568 108.31 7.71568ZM108.31 9.4986H105.295C105.183 9.4986 105.053 9.40532 105.053 9.31255V8.53272C105.053 8.42109 105.164 8.34667 105.276 8.34667H108.292C108.422 8.34667 108.552 8.43996 108.552 8.55106V9.23866C108.552 9.40532 108.422 9.4986 108.31 9.4986Z" fill="#007549"/>
<path d="M133.716 16.4065H126.867V18.2266C126.867 18.3566 126.792 18.4866 126.681 18.4866H124.708C124.578 18.4866 124.484 18.3383 124.484 18.2266V16.4065H117.56C117.448 16.4065 117.319 16.3137 117.319 16.2215V15.144C117.319 15.0329 117.43 14.9585 117.542 14.9585H124.484V13.6399H119.496C119.068 13.6399 118.696 13.4722 118.454 13.1944C118.249 12.9712 118.137 12.674 118.137 12.3213V7.78958C118.137 7.43687 118.268 7.10251 118.491 6.86143C118.733 6.60097 119.087 6.43431 119.496 6.43431H124.484V5.07799H117.84C117.728 5.07799 117.597 4.98575 117.597 4.89299V3.81548C117.597 3.70438 117.709 3.62996 117.821 3.62996H124.484V2.44135C124.484 2.32972 124.578 2.19975 124.671 2.19975H126.662C126.755 2.19975 126.867 2.32972 126.867 2.44135V3.62996H133.437C133.567 3.62996 133.697 3.72272 133.697 3.83435V4.81857C133.697 4.98575 133.567 5.07799 133.455 5.07799H126.867V6.43431H131.836C132.172 6.43431 132.525 6.56428 132.786 6.76867C133.046 6.97306 133.214 7.27022 133.214 7.60458V12.3585C133.214 12.7668 133.102 13.0644 132.897 13.2688C132.655 13.5283 132.283 13.6399 131.836 13.6399H126.867V14.9585H133.697C133.828 14.9585 133.958 15.0512 133.958 15.1629V16.1471C133.958 16.3137 133.847 16.4065 133.716 16.4065ZM124.484 7.90121H120.538V9.29421H124.484V7.90121ZM124.484 10.7422H120.538V12.1725H124.484V10.7422ZM130.831 7.90121H126.867V9.29421H130.831V7.90121ZM130.831 10.7422H126.867V12.1725H130.831V10.7422Z" fill="#007549"/>
<rect x="49.9967" y="37.8016" width="25.2024" height="0.83333" fill="#007549"/>
<rect x="108.798" y="37.8016" width="25.2024" height="0.83333" fill="#007549"/>
<path d="M18.7697 17.516V18.7313C18.7697 18.9341 18.9336 19.0976 19.1363 19.0955C19.7041 19.0908 20.2782 19.0882 20.8586 19.0882C21.439 19.0882 22.0131 19.0908 22.5809 19.0955C22.7842 19.0976 22.9475 18.9341 22.9475 18.7313V17.516C22.9475 17.3168 22.7894 17.1533 22.5898 17.1502C22.0194 17.1402 21.4422 17.1344 20.8586 17.1344C20.2751 17.1344 19.6978 17.1402 19.1279 17.1502C18.9283 17.1533 18.7697 17.3168 18.7697 17.516Z" fill="#007549"/>
<path d="M21.9133 30.9219C21.9133 31.5031 21.4411 31.9743 20.8586 31.9743C20.2761 31.9743 19.8039 31.5031 19.8039 30.9219C19.8039 30.3407 20.2761 29.8696 20.8586 29.8696C21.4411 29.8696 21.9133 30.3407 21.9133 30.9219Z" fill="#007549"/>
<path d="M26.8138 33.0597C26.8138 32.85 26.6116 32.7038 26.411 32.7641C24.6519 33.2939 22.7889 33.5822 20.8586 33.5822C18.9288 33.5822 17.0658 33.2939 15.3067 32.7641C15.1061 32.7038 14.9039 32.8505 14.9039 33.0597C14.9039 33.1975 14.9937 33.3201 15.1255 33.3594C16.9418 33.906 18.8663 34.2011 20.8586 34.2011C22.8514 34.2011 24.7759 33.906 26.5922 33.3594C26.724 33.3201 26.8138 33.197 26.8138 33.0597Z" fill="#007549"/>
<path d="M16.8861 8.14595C16.3693 8.21722 15.8593 8.30213 15.3582 8.40013C15.093 8.45201 14.9039 8.68733 14.9039 8.9567V12.9607C14.9039 13.3003 15.2001 13.5607 15.5384 13.523C16.0184 13.4696 16.5064 13.4234 17.0007 13.3841C17.2964 13.3611 17.5254 13.1163 17.5254 12.8207V8.70776C17.5254 8.36659 17.2249 8.09931 16.8861 8.14595Z" fill="#007549"/>
<path d="M23.383 8.50704C23.383 8.21093 23.155 7.96252 22.8593 7.94156C22.2017 7.89596 21.5341 7.87133 20.8581 7.87133C20.1826 7.87133 19.5156 7.89596 18.858 7.94156C18.5622 7.96199 18.3343 8.21093 18.3343 8.50704V12.7044C18.3343 13.0277 18.6048 13.2835 18.9283 13.2699C19.5628 13.2431 20.2057 13.2269 20.8581 13.2269C21.511 13.2269 22.1539 13.2431 22.7889 13.2699C23.1125 13.2835 23.383 13.0277 23.383 12.7044V8.50704Z" fill="#007549"/>
<path d="M24.1918 8.70776V12.8202C24.1918 13.1163 24.4214 13.3605 24.7171 13.3841C25.2108 13.4234 25.6988 13.4696 26.1788 13.523C26.5171 13.5607 26.8139 13.3003 26.8139 12.9607V8.9567C26.8139 8.6868 26.6243 8.45201 26.3595 8.40013C25.8579 8.30213 25.3484 8.21722 24.8311 8.14595C24.4928 8.09931 24.1918 8.36659 24.1918 8.70776Z" fill="#007549"/>
<path d="M17.767 21.0409H15.4711C15.1576 21.0409 14.9039 21.2946 14.9039 21.6069V25.7252C14.9039 26.0197 15.1292 26.2665 15.4233 26.2901C16.1786 26.3504 16.9539 26.397 17.7434 26.4316C18.0653 26.4458 18.3343 26.1874 18.3343 25.8656V21.6069C18.3343 21.2946 18.0806 21.0409 17.767 21.0409Z" fill="#007549"/>
<path d="M23.3829 21.6075V25.8661C23.3829 26.1879 23.6518 26.4463 23.9738 26.4321C24.7637 26.3976 25.539 26.3504 26.2943 26.2906C26.5885 26.2671 26.8138 26.0202 26.8138 25.7257V21.6075C26.8138 21.2946 26.5596 21.0415 26.246 21.0415H23.9501C23.6371 21.0415 23.3829 21.2946 23.3829 21.6075Z" fill="#007549"/>
<path d="M22.0068 21.0409H19.711C19.3974 21.0409 19.1432 21.2946 19.1432 21.6069V25.9264C19.1432 26.2351 19.3901 26.4882 19.6989 26.4935C20.0823 26.5003 20.4689 26.5045 20.8587 26.5045C21.2484 26.5045 21.635 26.5003 22.0189 26.4935C22.3278 26.4882 22.5741 26.2351 22.5741 25.9264V21.6069C22.5741 21.2946 22.3204 21.0409 22.0068 21.0409Z" fill="#007549"/>
<path d="M19.1143 0.538408C19.0218 0.269555 18.7539 0.103422 18.4708 0.135391C14.6843 0.566184 11.2051 2.00793 8.31203 4.18495H8.31046C3.26283 7.98191 0 14.0135 0 20.8114C0 29.2842 5.06863 36.5689 12.347 39.8166C13.2546 40.2217 14.324 39.9345 14.916 39.1369L16.977 36.3598C16.0195 36.2052 15.0872 35.9955 14.1853 35.734C13.8513 35.6376 13.6212 35.3321 13.6212 34.9846V7.09779C13.6212 6.75033 13.8518 6.44531 14.1864 6.34836C15.2784 6.03181 16.4155 5.79126 17.5879 5.63299L17.7066 4.50622C17.726 4.32331 17.8805 4.18495 18.0643 4.18495H20.3659L19.1143 0.538408Z" fill="#007549"/>
<path d="M33.4067 4.18496H33.4051C29.9138 1.55775 25.569 -0.000343323 20.8591 -0.000343323C20.618 -0.000343323 20.3785 0.00384932 20.1395 0.0122346C19.8958 0.0206199 19.7293 0.260648 19.8081 0.491244L21.076 4.18496H23.6534C23.8378 4.18496 23.9917 4.32331 24.0111 4.50622L24.1303 5.63299C25.309 5.79231 26.4519 6.03496 27.5492 6.3536C27.8732 6.44793 28.0965 6.74194 28.0965 7.0784V35.004C28.0965 35.3404 27.8732 35.635 27.5492 35.7293C26.6426 35.9929 25.7045 36.2047 24.7407 36.3603L26.8017 39.1369C27.3937 39.9345 28.4631 40.2223 29.3707 39.8171C36.6491 36.5689 41.7177 29.2842 41.7177 20.8114C41.7177 14.0135 38.4549 7.98191 33.4067 4.18496Z" fill="#007549"/>
</g>
</svg>
