<?xml version="1.0" standalone="no"?>
<!DOCTYPE svg PUBLIC "-//W3C//DTD SVG 20010904//EN"
 "http://www.w3.org/TR/2001/REC-SVG-20010904/DTD/svg10.dtd">
<svg version="1.0" xmlns="http://www.w3.org/2000/svg"
 width="558.000000pt" height="558.000000pt" viewBox="0 0 558.000000 558.000000"
 preserveAspectRatio="xMidYMid meet">
<metadata>
Created by potrace 1.11, written by Peter Selinger 2001-2013
</metadata>
<g transform="translate(0.000000,558.000000) scale(0.100000,-0.100000)"
fill="#000000" stroke="none">
<path d="M2668 5567 c-10 -8 -18 -24 -18 -36 0 -13 38 -138 85 -279 l85 -257
180 1 c209 0 207 1 216 -92 6 -68 12 -106 16 -109 2 -1 50 -10 108 -19 130
-22 321 -71 361 -92 17 -8 36 -29 43 -45 10 -24 13 -437 12 -2003 -1 -2250 10
-2009 -98 -2044 -71 -23 -158 -44 -266 -66 -41 -8 -75 -16 -77 -18 -5 -6 266
-383 302 -420 52 -54 114 -80 193 -82 60 -1 75 3 175 52 183 89 388 222 555
361 99 82 296 284 382 391 324 404 538 885 617 1388 17 110 20 133 28 232 13
169 6 558 -12 612 -2 7 -6 37 -9 65 -5 43 -36 209 -51 273 -231 989 -980 1798
-1927 2084 -65 20 -128 38 -140 40 -13 2 -45 10 -73 16 -27 6 -61 14 -75 16
-14 2 -38 6 -55 9 -16 3 -50 8 -75 11 -25 3 -56 7 -70 10 -14 2 -108 7 -210
10 -150 4 -188 2 -202 -9z"/>
<path d="M2419 5556 c-2 -2 -24 -6 -49 -9 -155 -19 -436 -98 -625 -178 -143
-60 -426 -216 -510 -281 -5 -4 -54 -42 -109 -83 -239 -184 -457 -419 -632
-682 -40 -61 -74 -115 -74 -118 0 -4 -8 -19 -19 -33 -32 -45 -137 -261 -184
-378 -71 -175 -148 -449 -172 -604 -32 -218 -40 -312 -39 -515 0 -153 10 -340
19 -367 2 -7 6 -36 9 -65 3 -28 8 -57 10 -65 3 -7 7 -30 10 -50 21 -144 104
-428 171 -588 221 -525 566 -957 1020 -1276 113 -79 197 -129 331 -196 118
-59 130 -63 192 -62 69 1 132 24 180 64 41 34 321 435 309 441 -7 4 -34 10
-62 14 -27 5 -54 10 -60 11 -5 2 -23 6 -40 9 -16 3 -39 9 -50 12 -11 4 -26 8
-34 9 -95 17 -179 64 -183 103 -1 9 -2 898 -3 1976 -2 1582 0 1966 11 1992 7
17 25 38 41 46 50 26 315 91 422 103 25 3 47 7 49 9 4 4 10 44 17 110 8 89 10
90 190 91 85 0 158 3 161 6 5 5 -33 136 -56 193 -5 11 -32 91 -60 178 -36 110
-58 161 -73 172 -19 13 -97 21 -108 11z"/>
<path d="M2748 4485 c-2 -2 -59 -5 -128 -8 -180 -7 -167 21 -168 -371 0 -249
3 -316 14 -338 8 -16 18 -29 22 -30 30 -6 591 -4 604 3 33 17 38 68 35 381 -2
374 9 347 -148 354 -57 3 -132 6 -166 8 -35 1 -64 2 -65 1z"/>
<path d="M2195 4434 c-38 -7 -86 -15 -105 -19 -98 -17 -94 -4 -96 -363 l-1
-304 27 -28 c29 -31 23 -30 204 -11 127 14 120 -6 121 354 1 166 -3 314 -8
330 -8 25 -37 49 -62 52 -5 1 -41 -4 -80 -11z"/>
<path d="M3282 4439 c-44 -17 -48 -47 -47 -373 1 -323 2 -328 50 -346 23 -9
185 -24 229 -22 17 1 39 11 50 22 20 20 21 32 22 323 0 167 -4 312 -9 323 -10
24 -39 41 -80 48 -15 3 -35 7 -45 10 -9 2 -37 7 -62 10 -25 3 -54 8 -65 10
-11 2 -30 0 -43 -5z"/>
<path d="M2530 3180 c-11 -7 -16 -35 -18 -118 -4 -127 3 -142 71 -142 310 -1
434 -1 444 -1 34 2 43 32 43 135 0 87 -3 105 -18 119 -16 15 -49 17 -263 17
-136 0 -251 -4 -259 -10z"/>
<path d="M2043 2639 c-48 -17 -49 -27 -48 -363 0 -393 -19 -358 201 -372 65
-4 135 -8 154 -9 44 -2 87 18 95 46 5 16 9 449 6 625 -1 18 -10 42 -20 55 -19
23 -23 24 -193 25 -96 1 -183 -3 -195 -7z"/>
<path d="M2603 2636 c-41 -22 -42 -30 -42 -370 l0 -328 27 -27 27 -27 179 1
179 1 23 28 24 27 0 319 c0 325 -4 360 -39 376 -25 12 -357 12 -378 0z"/>
<path d="M3173 2639 c-43 -16 -45 -36 -46 -364 0 -171 4 -321 7 -333 9 -28 51
-48 96 -46 91 3 262 16 287 20 16 3 37 14 48 25 19 18 20 33 20 339 0 402 23
365 -218 366 -95 1 -182 -3 -194 -7z"/>
<path d="M2734 1400 c-126 -56 -102 -252 33 -275 73 -12 145 39 159 111 22
121 -85 213 -192 164z"/>
<path d="M2002 993 c-19 -36 2 -58 80 -81 81 -24 229 -57 298 -67 25 -3 52 -8
60 -10 99 -26 543 -26 705 0 63 10 91 15 115 21 14 3 36 7 50 10 41 7 151 34
208 51 57 16 78 42 60 76 -12 23 -33 22 -144 -9 -105 -28 -106 -28 -224 -49
-107 -18 -159 -25 -235 -30 -85 -6 -311 -6 -370 0 -110 11 -142 15 -185 21
-55 7 -233 46 -313 68 -74 20 -94 20 -105 -1z"/>
</g>
</svg>
